<?xml version="1.0" standalone="no"?>
<!DOCTYPE svg PUBLIC "-//W3C//DTD SVG 20010904//EN"
 "http://www.w3.org/TR/2001/REC-SVG-20010904/DTD/svg10.dtd">
<svg version="1.0" xmlns="http://www.w3.org/2000/svg"
 width="500.000000pt" height="500.000000pt" viewBox="0 0 500.000000 500.000000"
 preserveAspectRatio="xMidYMid meet">

<g transform="translate(0.000000,500.000000) scale(0.100000,-0.100000)"
fill="#000000" stroke="none">
<path d="M0 2500 l0 -2500 2500 0 2500 0 0 2500 0 2500 -2500 0 -2500 0 0
-2500z m2024 1289 l26 -20 0 -430 0 -429 60 0 60 0 0 416 c0 266 4 422 10 435
6 10 24 26 41 35 25 12 34 13 47 3 43 -33 42 -16 42 -666 0 -610 0 -623 -20
-643 -29 -29 -74 -26 -99 6 -19 24 -21 40 -21 150 l0 124 -60 0 -60 0 0 -254
0 -255 -26 -20 c-33 -26 -45 -26 -78 0 l-26 20 0 748 c0 788 -1 764 45 789 27
15 28 15 59 -9z m1041 -5 c19 -14 20 -28 23 -262 2 -135 0 -257 -3 -269 -13
-52 -99 -62 -124 -14 -7 12 -11 98 -11 220 l0 201 -60 0 -60 0 0 -327 c0 -322
0 -327 -22 -350 -27 -29 -65 -29 -95 -1 l-23 21 0 329 0 328 -60 0 -60 0 0
-449 c0 -421 -1 -450 -18 -472 -26 -31 -78 -31 -104 0 -17 22 -18 52 -18 516
0 483 0 493 21 519 l20 26 287 0 c240 -1 290 -3 307 -16z m16 -731 c5 -14 9
-281 9 -629 l0 -605 -25 -24 c-30 -30 -54 -31 -89 -4 l-26 20 0 615 c0 416 3
622 11 635 23 45 102 39 120 -8z m-272 -229 c21 -26 21 -36 21 -516 l0 -489
-25 -24 c-30 -30 -54 -31 -89 -4 l-26 20 0 497 c0 495 0 496 22 519 29 31 71
30 97 -3z m-254 -247 c13 -18 15 -82 15 -390 l0 -368 -25 -24 c-13 -14 -33
-25 -45 -25 -12 0 -32 11 -45 25 l-25 24 0 365 c0 200 3 372 6 381 9 21 60 44
86 37 10 -2 25 -14 33 -25z m-265 -237 c19 -19 20 -33 20 -274 l0 -255 -26
-20 c-33 -26 -55 -26 -85 -2 -24 19 -24 20 -27 270 l-3 251 25 25 c30 30 69
32 96 5z m-257 -248 c15 -13 17 -34 17 -149 0 -120 -2 -135 -20 -153 -25 -25
-61 -26 -91 -1 -22 18 -24 27 -27 138 -3 128 5 159 47 179 26 13 46 9 74 -14z
m146 -513 c37 -13 51 -35 51 -83 0 -32 -3 -36 -25 -36 -19 0 -25 5 -25 23 0
32 -14 50 -36 45 -17 -3 -19 -15 -22 -127 -1 -69 2 -129 7 -134 5 -5 18 -6 30
-2 17 5 21 14 21 51 0 30 -5 46 -15 50 -8 4 -15 17 -15 30 0 21 4 24 40 24
l40 0 0 -82 c0 -70 -3 -85 -22 -105 -30 -32 -90 -32 -123 2 -24 23 -25 29 -25
160 l0 137 29 29 c32 32 43 34 90 18z m-489 -74 l0 -75 30 0 30 0 0 75 0 75
30 0 30 0 0 -185 0 -185 -30 0 -30 0 0 85 0 85 -30 0 -30 0 0 -86 0 -85 -27 3
-28 3 -3 183 -2 182 30 0 30 0 0 -75z m220 -80 c0 -130 3 -157 15 -161 8 -4
22 -1 30 6 12 10 15 42 15 161 l0 149 25 0 25 0 0 -162 c0 -152 -1 -163 -22
-185 -30 -32 -90 -32 -123 2 -24 24 -25 28 -25 185 l0 160 30 0 30 0 0 -155z
m513 -17 c15 -95 27 -179 27 -186 0 -9 -10 -12 -27 -10 -23 2 -29 8 -31 36 -3
29 -6 32 -37 32 -31 0 -35 -3 -41 -35 -5 -28 -11 -35 -30 -35 -30 0 -30 -3 3
203 l26 167 42 0 41 0 27 -172z m157 70 c7 -57 16 -109 19 -116 4 -7 13 31 20
85 17 136 16 133 62 133 l39 0 0 -185 0 -185 -25 0 -24 0 -3 128 -3 127 -20
-125 c-19 -121 -21 -125 -45 -125 -24 0 -26 5 -38 80 -27 175 -30 179 -31 43
l-1 -128 -25 0 -25 0 0 185 0 185 43 0 44 0 13 -102z m310 95 c1 -5 14 -84 29
-178 16 -93 27 -173 24 -177 -2 -5 -15 -8 -28 -8 -20 0 -25 7 -31 35 -6 32 -9
35 -39 35 -31 0 -34 -3 -37 -32 -2 -28 -8 -34 -30 -36 -16 -2 -28 -1 -28 3 0
11 50 319 55 343 4 18 12 22 45 22 22 0 40 -3 40 -7z m235 -18 c30 -29 34 -97
9 -134 -14 -19 -14 -25 -3 -32 9 -5 15 -34 17 -87 4 -78 4 -79 -22 -84 -14 -3
-28 -3 -31 0 -3 3 -5 33 -5 67 0 63 -11 85 -42 85 -16 0 -18 -10 -18 -81 l0
-80 -27 3 -28 3 -3 183 -2 182 65 0 c57 0 69 -3 90 -25z m216 -150 c16 -93 29
-176 29 -183 0 -9 -10 -12 -27 -10 -22 2 -29 9 -33 33 -4 25 -10 30 -38 33
-29 3 -33 0 -39 -28 -6 -33 -23 -46 -46 -37 -11 4 -8 38 14 179 16 95 29 177
29 181 0 5 19 7 42 5 l41 -3 28 -170z"/>
<path d="M2347 1465 c-3 -16 -9 -51 -13 -77 -6 -46 -5 -48 18 -48 24 0 25 1
17 53 -4 28 -9 63 -11 77 -4 24 -4 24 -11 -5z"/>
<path d="M2836 1436 c-4 -38 -10 -75 -13 -83 -3 -9 3 -13 22 -13 26 0 26 1 20
48 -4 26 -10 63 -14 82 -7 32 -8 28 -15 -34z"/>
<path d="M3040 1475 c0 -59 1 -60 31 -45 35 19 21 100 -18 100 -9 0 -13 -17
-13 -55z"/>
<path d="M3260 1463 c0 -10 -3 -42 -6 -70 -6 -49 -5 -53 15 -53 23 0 24 6 15
88 -6 48 -24 74 -24 35z"/>
</g>
</svg>
